#!OML:ASF E:\Steps\Project 1\Capture day 1\Session 2\Subject.ASF
:FULLY-SPECIFIED
:DEGREES
85
root -0.885815 18.0111 21.1105 -153.174 -4.03585 177.066
lowerback -24.7548 -2.17972 -6.74259
upperback 0.60836 -1.15629 0.213226
thorax 14.8274 -1.14191 3.67506
lowerneck -0.788344 -1.88166 -0.946477
upperneck 24.2361 -6.10592 4.06587
head 7.73628 -3.56276 0.963184
rclavicle -8.56016e-015 9.93923e-015
rhumerus -48.3804 -9.01533 -77.7282
rradius 56.5746
rwrist -22.125
rhand 14.4229 -65.7949
rfingers 7.12502
rthumb 39.3081 451.226
lclavicle -8.56016e-015 9.93923e-015
lhumerus -29.1178 -0.818289 84.1053
lradius 31.389
lwrist 2.02834
lhand -22.7738 -12.1082
lfingers 7.12502
lthumb 3.66153 17.8401
rfemur -24.8688 2.91011 19.5255
rtibia 4.99438
rfoot -15.5714 0.0191496
rtoes -10.1176
lfemur -26.353 -9.05982 -22.7039
ltibia 7.22896
lfoot -5.18114 -1.49412
ltoes -33.4568
86
root -0.884371 18.0105 21.1079 -153.202 -4.06776 177.088
lowerback -24.7626 -2.16103 -6.71478
upperback 0.5712 -1.14184 0.196535
thorax 14.7839 -1.13174 3.64498
lowerneck -1.05363 -1.91079 -1.13644
upperneck 24.8081 -6.33089 4.31163
head 7.9974 -3.68236 1.04392
rclavicle -1.42876e-015 -1.04362e-015
rhumerus -48.5516 -8.85125 -77.8512
rradius 56.516
rwrist -22.7226
rhand 15.528 -74.9363
rfingers 7.12502
rthumb 40.3484 460.056
lclavicle -1.42876e-015 -1.04362e-015
lhumerus -29.1535 -1.00106 84.2692
lradius 32.0456
lwrist 2.42034
lhand -22.8533 -12.1136
lfingers 7.12502
lthumb 3.58478 17.836
rfemur -24.8145 2.87502 19.5728
rtibia 4.97605
rfoot -15.5652 0.0156356
rtoes -10.0364
lfemur -26.316 -9.08463 -22.6703
ltibia 7.23027
lfoot -5.18703 -1.49361
ltoes -34.3732
87
root -0.882271 18.0108 21.1069 -153.251 -4.10507 177.099
lowerback -24.732 -2.16329 -6.71614
upperback 0.5648 -1.14626 0.189371
thorax 14.7592 -1.13262 3.63611
lowerneck -0.842615 -1.88283 -0.943802
upperneck 24.4746 -6.20224 4.18441
head 7.83341 -3.60974 0.989138
rclavicle -1.86361e-015 1.07841e-014
rhumerus -48.6167 -8.74202 -77.9215
rradius 56.5008
rwrist -22.8523
rhand 15.3744 -74.0964
rfingers 7.12502
rthumb 40.204 459.261
lclavicle -1.86361e-015 1.07841e-014
lhumerus -29.0945 -1.06805 84.3899
lradius 32.6157
lwrist 2.66152
lhand -22.5888 -11.9277
lfingers 7.12502
lthumb 3.84021 18.0174
rfemur -24.7245 3.15266 19.5231
rtibia 4.92153
rfoot -15.5801 -0.348541
rtoes -10.3411
lfemur -26.283 -9.17636 -22.617
ltibia 7.27019
lfoot -5.29806 -1.43138
ltoes -35.5534
88
root -0.880716 18.0116 21.1065 -153.292 -4.14973 177.119
lowerback -24.7136 -2.16328 -6.69826
upperback 0.5733 -1.15047 0.181937
thorax 14.7589 -1.13248 3.61579
lowerneck -0.837533 -1.8352 -0.852424
upperneck 24.3503 -6.07758 4.08785
head 7.78117 -3.543 0.953401
rclavicle -5.24295e-015 2.10215e-014
rhumerus -48.5641 -8.78488 -77.8909
rradius 56.5589
rwrist -22.4986
rhand 16.0105 -75.5202
rfingers 7.12502
rthumb 40.802 460.499
lclavicle -5.24295e-015 2.10215e-014
lhumerus -28.992 -1.22187 84.5144
lradius 33.1253
lwrist 2.79615
lhand -22.529 -12
lfingers 7.12502
lthumb 3.89792 17.9441
rfemur -24.6539 3.19686 19.55
rtibia 4.87425
rfoot -15.5851 -0.440173
rtoes -10.4918
lfemur -26.2656 -9.28767 -22.5484
ltibia 7.31768
lfoot -5.32904 -1.33032
ltoes -35.3172
89
root -0.879388 18.012 21.1059 -153.297 -4.17265 177.125
lowerback -24.7227 -2.17321 -6.69608
upperback 0.576457 -1.16185 0.169841
thorax 14.7688 -1.1372 3.59605
lowerneck -0.844438 -1.77192 -0.891011
upperneck 24.2593 -5.95947 4.11516
head 7.74961 -3.48219 0.978931
rclavicle 3.05631e-015 -2.68359e-015
rhumerus -48.4423 -8.8415 -77.8295
rradius 56.5973
rwrist -21.7969
rhand 14.0467 -60.1347
rfingers 7.12502
rthumb 38.9535 634.332
lclavicle 3.05631e-015 -2.68359e-015
lhumerus -28.8699 -1.26697 84.6322
lradius 33.5577
lwrist 2.78431
lhand -22.6155 -12.0851
lfingers 7.12502
lthumb 3.81438 17.8605
rfemur -24.6739 2.74281 19.6882
rtibia 4.91722
rfoot -15.5843 0.00978221
rtoes -10.1978
lfemur -26.2674 -9.31138 -22.5262
ltibia 7.32792
lfoot -5.28869 -1.29664
ltoes -34.5345
90
root -0.877287 18.0109 21.1036 -153.285 -4.21846 177.126
lowerback -24.9053 -2.23777 -6.75406
upperback 0.649966 -1.21066 0.177727
thorax 14.9695 -1.17019 3.61785
lowerneck -1.07555 -1.74122 -0.92291
upperneck 24.4285 -5.95505 4.19755
head 7.85105 -3.47203 1.00427
rclavicle 9.93923e-016 1.88845e-015
rhumerus -48.1849 -8.68913 -77.95
rradius 56.4539
rwrist -21.696
rhand 14.2105 -61.1118
rfingers 7.12502
rthumb 39.108 633.399
lclavicle 9.93923e-016 1.88845e-015
lhumerus -28.669 -1.18564 84.6913
lradius 33.9663
lwrist 2.70536
lhand -22.6142 -12.1044
lfingers 7.12502
lthumb 3.81564 17.8411
rfemur -24.702 2.3003 19.8295
rtibia 4.96247
rfoot -15.5897 0.375448
rtoes -10.5482
lfemur -26.2712 -9.27087 -22.5295
ltibia 7.32606
lfoot -5.22909 -1.42461
ltoes -34.0419
91
root -0.875494 18.0095 21.1 -153.305 -4.27067 177.113
lowerback -25.2517 -2.31241 -6.87518
upperback 0.835214 -1.23028 0.197121
thorax 15.3991 -1.20254 3.698
lowerneck -1.05312 -1.87076 -0.891238
upperneck 23.9696 -6.01511 4.18561
head 7.69326 -3.47649 0.998944
rclavicle 3.77691e-015 -2.99171e-014
rhumerus -47.803 -8.58812 -78.1042
rradius 56.2454
rwrist -21.8964
rhand 15.2097 -68.4739
rfingers 7.12502
rthumb 40.049 453.685
lclavicle 3.77691e-015 -2.99171e-014
lhumerus -28.3572 -1.36869 84.8273
lradius 34.4454
lwrist 2.88041
lhand -22.7796 -12.1935
lfingers 7.12502
lthumb 3.65592 17.7548
rfemur -24.6148 2.29323 19.8375
rtibia 4.89041
rfoot -15.6655 0.293357
rtoes -11.5665
lfemur -26.2218 -9.24147 -22.5563
ltibia 7.31625
lfoot -5.2128 -1.56204
ltoes -33.9369
92
root -0.873803 18.0106 21.099 -153.369 -4.27609 177.097
lowerback -25.3605 -2.3484 -6.9695
upperback 0.9355 -1.2318 0.211856
thorax 15.5875 -1.21717 3.76741
lowerneck -1.05811 -1.94665 -0.861492
upperneck 23.7706 -6.0532 4.11633
head 7.62574 -3.48672 0.971909
rclavicle 9.0944e-015 2.08724e-015
rhumerus -47.6203 -8.5323 -78.1535
rradius 56.1514
rwrist -21.8607
rhand 13.7801 -61.3188
rfingers 7.12502
rthumb 38.7022 633.076
lclavicle 9.0944e-015 2.08724e-015
lhumerus -28.2357 -1.68608 85.027
lradius 34.9851
lwrist 3.23306
lhand -23.0704 -12.3579
lfingers 7.12502
lthumb 3.37514 17.5951
rfemur -24.4757 2.55685 19.7452
rtibia 4.78954
rfoot -15.7548 0.0651208
rtoes -11.2584
lfemur -26.1398 -9.23243 -22.5798
ltibia 7.30974
lfoot -5.23648 -1.56854
ltoes -34.2371
93
root -0.871998 18.01 21.0974 -153.41 -4.2658 177.051
lowerback -25.3042 -2.3609 -7.05474
upperback 0.904524 -1.22957 0.203172
thorax 15.5192 -1.22084 3.80775
lowerneck -0.969746 -1.99393 -0.808989
upperneck 23.7101 -6.09115 4.00215
head 7.58615 -3.51129 0.925896
rclavicle -1.01132e-014 -1.39149e-015
rhumerus -47.643 -8.40033 -78.199
rradius 56.0597
rwrist -21.8898
rhand 14.9488 -68.2233
rfingers 7.12502
rthumb 39.8035 453.508
lclavicle -1.01132e-014 -1.39149e-015
lhumerus -28.2988 -1.84718 85.1544
lradius 35.4356
lwrist 3.34929
lhand -23.1714 -12.6324
lfingers 7.12502
lthumb 3.27762 17.3221
rfemur -24.4105 2.61794 19.6749
rtibia 4.78635
rfoot -15.7384 0.00840773
rtoes -10.4548
lfemur -26.0804 -9.24241 -22.6376
ltibia 7.30874
lfoot -5.22688 -1.57681
ltoes -34.0749
94
root -0.87072 18.0082 21.0948 -153.368 -4.27767 177.015
lowerback -25.3707 -2.35412 -7.11672
upperback 0.865452 -1.19858 0.171271
thorax 15.5064 -1.21122 3.81706
lowerneck -0.98527 -2.00113 -0.682197
upperneck 23.7546 -6.08769 3.86914
head 7.5965 -3.50986 0.860312
rclavicle 7.1811e-015 1.46107e-014
rhumerus -47.6186 -8.39441 -78.2701
rradius 55.8858
rwrist -21.9894
rhand 13.6012 -60.827
rfingers 7.12502
rthumb 38.5334 273.521
lclavicle 7.1811e-015 1.46107e-014
lhumerus -28.2743 -2.02231 85.2434
lradius 35.7803
lwrist 3.35177
lhand -23.0221 -12.7797
lfingers 7.12502
lthumb 3.42178 17.1726
rfemur -24.4506 2.56379 19.6571
rtibia 4.79587
rfoot -15.6816 -0.0198327
rtoes -10.4986
lfemur -26.1305 -9.24381 -22.6783
ltibia 7.34871
lfoot -5.23978 -1.56761
ltoes -33.8826
95
root -0.870431 18.0088 21.0936 -153.326 -4.29664 177.079
lowerback -25.3007 -2.29707 -7.02885
upperback 0.743761 -1.16638 0.144722
thorax 15.3103 -1.18314 3.74888
lowerneck -0.933892 -1.91085 -0.654263
upperneck 23.8383 -5.99007 3.88608
head 7.61244 -3.46658 0.867558
rclavicle 8.72168e-015 1.87852e-014
rhumerus -47.7302 -8.38572 -78.379
rradius 55.6006
rwrist -22.6082
rhand 14.0926 -63.7029
rfingers 7.12502
rthumb 38.9968 270.776
lclavicle 8.72168e-015 1.87852e-014
lhumerus -28.3952 -2.34248 85.3744
lradius 36.0951
lwrist 3.29166
lhand -22.8863 -13.0954
lfingers 7.12502
lthumb 3.55292 16.8548
rfemur -24.5109 2.6249 19.723
rtibia 4.80807
rfoot -15.738 -0.0476809
rtoes -10.3957
lfemur -26.1903 -9.18712 -22.6025
ltibia 7.3562
lfoot -5.2193 -1.53889
ltoes -33.4491
96
root -0.870694 18.0089 21.0908 -153.377 -4.25659 177.167
lowerback -25.0124 -2.19932 -6.91265
upperback 0.546571 -1.11363 0.124167
thorax 14.896 -1.13709 3.68189
lowerneck -0.933847 -1.93721 -0.854964
upperneck 24.2221 -6.17537 4.10404
head 7.75882 -3.57636 0.952431
rclavicle -5.54112e-015 -1.03368e-014
rhumerus -48.0511 -8.28525 -78.4748
rradius 55.2478
rwrist -23.5089
rhand 15.5958 -74.3587
rfingers 7.12502
rthumb 40.4122 99.459
lclavicle -5.54112e-015 -1.03368e-014
lhumerus -28.7281 -2.73683 85.5577
lradius 36.3949
lwrist 3.06015
lhand -23.2058 -13.5306
lfingers 7.12502
lthumb 3.24435 16.4245
rfemur -24.4701 2.72141 19.8042
rtibia 4.82255
rfoot -15.7802 0.0053092
rtoes -9.94834
lfemur -26.1063 -9.15708 -22.51
ltibia 7.28454
lfoot -5.16276 -1.50966
ltoes -32.9506
97
root -0.868561 18.0093 21.0938 -153.374 -4.28088 177.168
lowerback -24.8336 -2.19012 -6.93794
upperback 0.421373 -1.12218 0.121436
thorax 14.6447 -1.13559 3.69229
lowerneck -0.447573 -1.71344 -0.708554
upperneck 23.7131 -5.71778 3.89274
head 7.47789 -3.3619 0.909446
rclavicle 7.7526e-015 -1.13307e-014
rhumerus -48.1892 -8.36978 -78.3729
rradius 55.6228
rwrist -22.6322
rhand 14.987 -62.3586
rfingers 7.12502
rthumb 39.8394 272.367
lclavicle 7.7526e-015 -1.13307e-014
lhumerus -28.9066 -3.11868 85.7357
lradius 36.7095
lwrist 3.06765
lhand -23.7601 -13.275
lfingers 7.12502
lthumb 2.70902 16.6876
rfemur -24.4833 2.60867 19.8482
rtibia 4.82024
rfoot -15.6762 0.0870513
rtoes -10.0825
lfemur -26.1518 -9.13702 -22.4957
ltibia 7.34436
lfoot -5.21092 -1.61379
ltoes -33.5389
98
root -0.867892 18.0089 21.0945 -153.352 -4.2473 177.152
lowerback -24.9028 -2.17379 -6.96943
upperback 0.43338 -1.08189 0.0917747
thorax 14.6935 -1.12061 3.69002
lowerneck -0.757913 -1.83918 -0.827575
upperneck 23.9743 -5.92871 3.91268
head 7.62972 -3.46615 0.911027
rclavicle -9.61621e-015 6.95746e-016
rhumerus -48.1502 -8.17338 -78.7149
rradius 55.6349
rwrist -23.7455
rhand 14.9791 -67.1195
rfingers 7.12502
rthumb 39.832 92.396
lclavicle -9.61621e-015 6.95746e-016
lhumerus -28.8671 -3.55203 85.8778
lradius 37.0232
lwrist 3.32576
lhand -24.1463 -13.2757
lfingers 7.12502
lthumb 2.33607 16.6912
rfemur -24.536 2.35596 19.8973
rtibia 4.85849
rfoot -15.6122 0.305137
rtoes -10.5075
lfemur -26.1794 -9.13128 -22.5112
ltibia 7.35799
lfoot -5.25596 -1.60401
ltoes -34.0927
